1	BOS
51	NOTE_ON_69
180	TIME_SHIFT_2
139	NOTE_OFF_69
51	NOTE_ON_69
58	NOTE_ON_76
179	TIME_SHIFT_1
58	NOTE_ON_76
179	TIME_SHIFT_1
139	NOTE_OFF_69
146	NOTE_OFF_76
56	NOTE_ON_74
179	TIME_SHIFT_1
54	NOTE_ON_72
179	TIME_SHIFT_1
144	NOTE_OFF_74
146	NOTE_OFF_76
51	NOTE_ON_69
56	NOTE_ON_74
179	TIME_SHIFT_1
142	NOTE_OFF_72
54	NOTE_ON_72
179	TIME_SHIFT_1
144	NOTE_OFF_74
58	NOTE_ON_76
179	TIME_SHIFT_1
139	NOTE_OFF_69
51	NOTE_ON_69
179	TIME_SHIFT_1
142	NOTE_OFF_72
56	NOTE_ON_74
179	TIME_SHIFT_1
146	NOTE_OFF_76
179	TIME_SHIFT_1
139	NOTE_OFF_69
54	NOTE_ON_72
58	NOTE_ON_76
179	TIME_SHIFT_1
144	NOTE_OFF_74
56	NOTE_ON_74
179	TIME_SHIFT_1
142	NOTE_OFF_72
146	NOTE_OFF_76
54	NOTE_ON_72
56	NOTE_ON_74
179	TIME_SHIFT_1
144	NOTE_OFF_74
47	NOTE_ON_65
54	NOTE_ON_72
179	TIME_SHIFT_1
142	NOTE_OFF_72
144	NOTE_OFF_74
179	TIME_SHIFT_1
47	NOTE_ON_65
54	NOTE_ON_72
179	TIME_SHIFT_1
135	NOTE_OFF_65
142	NOTE_OFF_72
179	TIME_SHIFT_1
53	NOTE_ON_71
54	NOTE_ON_72
179	TIME_SHIFT_1
135	NOTE_OFF_65
142	NOTE_OFF_72
179	TIME_SHIFT_1
51	NOTE_ON_69
53	NOTE_ON_71
179	TIME_SHIFT_1
141	NOTE_OFF_71
142	NOTE_OFF_72
49	NOTE_ON_67
179	TIME_SHIFT_1
139	NOTE_OFF_69
51	NOTE_ON_69
179	TIME_SHIFT_1
141	NOTE_OFF_71
56	NOTE_ON_74
179	TIME_SHIFT_1
137	NOTE_OFF_67
49	NOTE_ON_67
179	TIME_SHIFT_1
139	NOTE_OFF_69
54	NOTE_ON_72
56	NOTE_ON_74
179	TIME_SHIFT_1
137	NOTE_OFF_67
144	NOTE_OFF_74
179	TIME_SHIFT_1
53	NOTE_ON_71
179	TIME_SHIFT_1
142	NOTE_OFF_72
144	NOTE_OFF_74
54	NOTE_ON_72
179	TIME_SHIFT_1
53	NOTE_ON_71
54	NOTE_ON_72
179	TIME_SHIFT_1
141	NOTE_OFF_71
142	NOTE_OFF_72
142	NOTE_OFF_72
53	NOTE_ON_71
179	TIME_SHIFT_1
141	NOTE_OFF_71
51	NOTE_ON_69
179	TIME_SHIFT_1
141	NOTE_OFF_71
179	TIME_SHIFT_1
139	NOTE_OFF_69
51	NOTE_ON_69
58	NOTE_ON_76
179	TIME_SHIFT_1
58	NOTE_ON_76
179	TIME_SHIFT_1
139	NOTE_OFF_69
146	NOTE_OFF_76
56	NOTE_ON_74
179	TIME_SHIFT_1
54	NOTE_ON_72
179	TIME_SHIFT_1
144	NOTE_OFF_74
146	NOTE_OFF_76
51	NOTE_ON_69
56	NOTE_ON_74
179	TIME_SHIFT_1
142	NOTE_OFF_72
54	NOTE_ON_72
179	TIME_SHIFT_1
144	NOTE_OFF_74
58	NOTE_ON_76
179	TIME_SHIFT_1
139	NOTE_OFF_69
51	NOTE_ON_69
179	TIME_SHIFT_1
142	NOTE_OFF_72
56	NOTE_ON_74
179	TIME_SHIFT_1
146	NOTE_OFF_76
179	TIME_SHIFT_1
139	NOTE_OFF_69
54	NOTE_ON_72
58	NOTE_ON_76
179	TIME_SHIFT_1
144	NOTE_OFF_74
56	NOTE_ON_74
179	TIME_SHIFT_1
142	NOTE_OFF_72
146	NOTE_OFF_76
54	NOTE_ON_72
56	NOTE_ON_74
179	TIME_SHIFT_1
144	NOTE_OFF_74
47	NOTE_ON_65
54	NOTE_ON_72
179	TIME_SHIFT_1
142	NOTE_OFF_72
144	NOTE_OFF_74
179	TIME_SHIFT_1
47	NOTE_ON_65
54	NOTE_ON_72
179	TIME_SHIFT_1
135	NOTE_OFF_65
142	NOTE_OFF_72
179	TIME_SHIFT_1
53	NOTE_ON_71
54	NOTE_ON_72
179	TIME_SHIFT_1
135	NOTE_OFF_65
142	NOTE_OFF_72
179	TIME_SHIFT_1
51	NOTE_ON_69
53	NOTE_ON_71
179	TIME_SHIFT_1
141	NOTE_OFF_71
142	NOTE_OFF_72
49	NOTE_ON_67
179	TIME_SHIFT_1
139	NOTE_OFF_69
51	NOTE_ON_69
179	TIME_SHIFT_1
141	NOTE_OFF_71
56	NOTE_ON_74
179	TIME_SHIFT_1
137	NOTE_OFF_67
49	NOTE_ON_67
179	TIME_SHIFT_1
139	NOTE_OFF_69
54	NOTE_ON_72
56	NOTE_ON_74
179	TIME_SHIFT_1
137	NOTE_OFF_67
144	NOTE_OFF_74
179	TIME_SHIFT_1
53	NOTE_ON_71
179	TIME_SHIFT_1
142	NOTE_OFF_72
144	NOTE_OFF_74
54	NOTE_ON_72
179	TIME_SHIFT_1
53	NOTE_ON_71
54	NOTE_ON_72
179	TIME_SHIFT_1
141	NOTE_OFF_71
142	NOTE_OFF_72
142	NOTE_OFF_72
53	NOTE_ON_71
179	TIME_SHIFT_1
141	NOTE_OFF_71
39	NOTE_ON_57
42	NOTE_ON_60
46	NOTE_ON_64
51	NOTE_ON_69
179	TIME_SHIFT_1
141	NOTE_OFF_71
179	TIME_SHIFT_1
139	NOTE_OFF_69
51	NOTE_ON_69
58	NOTE_ON_76
179	TIME_SHIFT_1
58	NOTE_ON_76
179	TIME_SHIFT_1
139	NOTE_OFF_69
146	NOTE_OFF_76
56	NOTE_ON_74
179	TIME_SHIFT_1
54	NOTE_ON_72
179	TIME_SHIFT_1
144	NOTE_OFF_74
146	NOTE_OFF_76
51	NOTE_ON_69
56	NOTE_ON_74
179	TIME_SHIFT_1
142	NOTE_OFF_72
54	NOTE_ON_72
179	TIME_SHIFT_1
144	NOTE_OFF_74
58	NOTE_ON_76
179	TIME_SHIFT_1
139	NOTE_OFF_69
51	NOTE_ON_69
179	TIME_SHIFT_1
142	NOTE_OFF_72
56	NOTE_ON_74
179	TIME_SHIFT_1
146	NOTE_OFF_76
179	TIME_SHIFT_1
139	NOTE_OFF_69
54	NOTE_ON_72
58	NOTE_ON_76
179	TIME_SHIFT_1
144	NOTE_OFF_74
56	NOTE_ON_74
179	TIME_SHIFT_1
142	NOTE_OFF_72
146	NOTE_OFF_76
54	NOTE_ON_72
56	NOTE_ON_74
179	TIME_SHIFT_1
144	NOTE_OFF_74
35	NOTE_ON_53
39	NOTE_ON_57
47	NOTE_ON_65
54	NOTE_ON_72
179	TIME_SHIFT_1
127	NOTE_OFF_57
130	NOTE_OFF_60
142	NOTE_OFF_72
144	NOTE_OFF_74
42	NOTE_ON_60
179	TIME_SHIFT_1
134	NOTE_OFF_64
47	NOTE_ON_65
54	NOTE_ON_72
179	TIME_SHIFT_1
135	NOTE_OFF_65
142	NOTE_OFF_72
179	TIME_SHIFT_1
53	NOTE_ON_71
54	NOTE_ON_72
179	TIME_SHIFT_1
135	NOTE_OFF_65
142	NOTE_OFF_72
179	TIME_SHIFT_1
51	NOTE_ON_69
53	NOTE_ON_71
179	TIME_SHIFT_1
141	NOTE_OFF_71
142	NOTE_OFF_72
49	NOTE_ON_67
179	TIME_SHIFT_1
139	NOTE_OFF_69
37	NOTE_ON_55
41	NOTE_ON_59
44	NOTE_ON_62
51	NOTE_ON_69
179	TIME_SHIFT_1
123	NOTE_OFF_53
127	NOTE_OFF_57
130	NOTE_OFF_60
141	NOTE_OFF_71
56	NOTE_ON_74
179	TIME_SHIFT_1
137	NOTE_OFF_67
49	NOTE_ON_67
179	TIME_SHIFT_1
139	NOTE_OFF_69
54	NOTE_ON_72
56	NOTE_ON_74
179	TIME_SHIFT_1
137	NOTE_OFF_67
144	NOTE_OFF_74
179	TIME_SHIFT_1
53	NOTE_ON_71
179	TIME_SHIFT_1
142	NOTE_OFF_72
144	NOTE_OFF_74
54	NOTE_ON_72
179	TIME_SHIFT_1
53	NOTE_ON_71
54	NOTE_ON_72
179	TIME_SHIFT_1
141	NOTE_OFF_71
142	NOTE_OFF_72
142	NOTE_OFF_72
42	NOTE_ON_60
53	NOTE_ON_71
179	TIME_SHIFT_1
129	NOTE_OFF_59
141	NOTE_OFF_71
39	NOTE_ON_57
46	NOTE_ON_64
51	NOTE_ON_69
179	TIME_SHIFT_1
125	NOTE_OFF_55
132	NOTE_OFF_62
141	NOTE_OFF_71
179	TIME_SHIFT_1
139	NOTE_OFF_69
51	NOTE_ON_69
58	NOTE_ON_76
179	TIME_SHIFT_1
58	NOTE_ON_76
179	TIME_SHIFT_1
139	NOTE_OFF_69
146	NOTE_OFF_76
56	NOTE_ON_74
179	TIME_SHIFT_1
54	NOTE_ON_72
179	TIME_SHIFT_1
144	NOTE_OFF_74
146	NOTE_OFF_76
51	NOTE_ON_69
56	NOTE_ON_74
179	TIME_SHIFT_1
142	NOTE_OFF_72
54	NOTE_ON_72
179	TIME_SHIFT_1
144	NOTE_OFF_74
58	NOTE_ON_76
179	TIME_SHIFT_1
139	NOTE_OFF_69
51	NOTE_ON_69
179	TIME_SHIFT_1
142	NOTE_OFF_72
56	NOTE_ON_74
179	TIME_SHIFT_1
146	NOTE_OFF_76
179	TIME_SHIFT_1
139	NOTE_OFF_69
54	NOTE_ON_72
58	NOTE_ON_76
179	TIME_SHIFT_1
144	NOTE_OFF_74
56	NOTE_ON_74
179	TIME_SHIFT_1
142	NOTE_OFF_72
146	NOTE_OFF_76
54	NOTE_ON_72
56	NOTE_ON_74
179	TIME_SHIFT_1
144	NOTE_OFF_74
35	NOTE_ON_53
39	NOTE_ON_57
42	NOTE_ON_60
47	NOTE_ON_65
54	NOTE_ON_72
179	TIME_SHIFT_1
127	NOTE_OFF_57
130	NOTE_OFF_60
134	NOTE_OFF_64
142	NOTE_OFF_72
144	NOTE_OFF_74
179	TIME_SHIFT_1
47	NOTE_ON_65
54	NOTE_ON_72
179	TIME_SHIFT_1
135	NOTE_OFF_65
142	NOTE_OFF_72
179	TIME_SHIFT_1
53	NOTE_ON_71
54	NOTE_ON_72
179	TIME_SHIFT_1
135	NOTE_OFF_65
142	NOTE_OFF_72
179	TIME_SHIFT_1
51	NOTE_ON_69
53	NOTE_ON_71
179	TIME_SHIFT_1
141	NOTE_OFF_71
142	NOTE_OFF_72
49	NOTE_ON_67
179	TIME_SHIFT_1
139	NOTE_OFF_69
37	NOTE_ON_55
44	NOTE_ON_62
51	NOTE_ON_69
179	TIME_SHIFT_1
123	NOTE_OFF_53
130	NOTE_OFF_60
141	NOTE_OFF_71
41	NOTE_ON_59
56	NOTE_ON_74
179	TIME_SHIFT_1
127	NOTE_OFF_57
137	NOTE_OFF_67
49	NOTE_ON_67
179	TIME_SHIFT_1
139	NOTE_OFF_69
54	NOTE_ON_72
56	NOTE_ON_74
179	TIME_SHIFT_1
137	NOTE_OFF_67
144	NOTE_OFF_74
179	TIME_SHIFT_1
53	NOTE_ON_71
179	TIME_SHIFT_1
142	NOTE_OFF_72
144	NOTE_OFF_74
54	NOTE_ON_72
179	TIME_SHIFT_1
53	NOTE_ON_71
54	NOTE_ON_72
179	TIME_SHIFT_1
141	NOTE_OFF_71
142	NOTE_OFF_72
142	NOTE_OFF_72
53	NOTE_ON_71
179	TIME_SHIFT_1
125	NOTE_OFF_55
132	NOTE_OFF_62
141	NOTE_OFF_71
15	NOTE_ON_33
39	NOTE_ON_57
42	NOTE_ON_60
46	NOTE_ON_64
46	NOTE_ON_64
51	NOTE_ON_69
179	TIME_SHIFT_1
129	NOTE_OFF_59
141	NOTE_OFF_71
179	TIME_SHIFT_1
139	NOTE_OFF_69
58	NOTE_ON_76
180	TIME_SHIFT_2
146	NOTE_OFF_76
15	NOTE_ON_33
44	NOTE_ON_62
56	NOTE_ON_74
179	TIME_SHIFT_1
103	NOTE_OFF_33
134	NOTE_OFF_64
54	NOTE_ON_72
179	TIME_SHIFT_1
144	NOTE_OFF_74
44	NOTE_ON_62
51	NOTE_ON_69
179	TIME_SHIFT_1
132	NOTE_OFF_62
142	NOTE_OFF_72
15	NOTE_ON_33
179	TIME_SHIFT_1
103	NOTE_OFF_33
58	NOTE_ON_76
179	TIME_SHIFT_1
139	NOTE_OFF_69
179	TIME_SHIFT_1
15	NOTE_ON_33
56	NOTE_ON_74
179	TIME_SHIFT_1
103	NOTE_OFF_33
146	NOTE_OFF_76
179	TIME_SHIFT_1
42	NOTE_ON_60
54	NOTE_ON_72
179	TIME_SHIFT_1
132	NOTE_OFF_62
144	NOTE_OFF_74
15	NOTE_ON_33
56	NOTE_ON_74
179	TIME_SHIFT_1
103	NOTE_OFF_33
142	NOTE_OFF_72
42	NOTE_ON_60
54	NOTE_ON_72
179	TIME_SHIFT_1
130	NOTE_OFF_60
144	NOTE_OFF_74
11	NOTE_ON_29
35	NOTE_ON_53
39	NOTE_ON_57
47	NOTE_ON_65
179	TIME_SHIFT_1
103	NOTE_OFF_33
